<?xml version="1.0" standalone="no"?>
<!DOCTYPE svg PUBLIC "-//W3C//DTD SVG 20010904//EN"
 "http://www.w3.org/TR/2001/REC-SVG-20010904/DTD/svg10.dtd">
<svg version="1.0" xmlns="http://www.w3.org/2000/svg"
 width="512.000000pt" height="512.000000pt" viewBox="0 0 512.000000 512.000000"
 preserveAspectRatio="xMidYMid meet">

<g transform="translate(0.000000,512.000000) scale(0.100000,-0.100000)"
fill="#000000" stroke="none">
<path d="M1951 5104 c-77 -21 -143 -59 -201 -118 -59 -60 -78 -90 -110 -171
-23 -58 -24 -70 -28 -407 l-4 -347 -656 -3 -657 -3 -57 -23 c-81 -33 -160
-108 -200 -190 l-33 -67 0 -1365 0 -1365 33 -67 c40 -82 119 -157 200 -190
l57 -23 948 -3 947 -2 0 -154 0 -154 -87 -4 c-185 -9 -310 -112 -343 -285 -11
-55 -10 -66 6 -100 11 -21 30 -43 44 -50 36 -18 1464 -18 1500 0 14 7 33 29
44 50 16 34 17 45 6 100 -33 173 -158 276 -342 285 l-88 4 0 154 0 154 948 2
947 3 57 23 c81 33 160 108 200 190 l33 67 0 1365 0 1365 -33 67 c-40 82 -119
157 -200 190 -57 23 -59 23 -588 26 -527 3 -530 3 -557 -18 -31 -24 -37 -73
-13 -106 14 -18 34 -19 548 -24 527 -5 533 -5 575 -27 51 -27 96 -82 112 -132
16 -55 16 -2627 0 -2682 -16 -50 -61 -105 -112 -132 l-42 -22 -2245 0 -2245 0
-42 22 c-51 27 -96 82 -112 132 -16 55 -16 2627 0 2682 16 50 61 105 112 132
42 22 42 22 690 25 l647 3 0 -44 c0 -25 3 -58 6 -76 l6 -31 -631 -2 -631 -3
-27 -28 -28 -27 -3 -964 -2 -963 21 -26 c28 -37 80 -37 108 -1 21 27 21 31 21
945 l0 919 595 0 594 0 11 -39 c54 -200 214 -419 389 -531 l70 -45 0 -104 c1
-93 -1 -107 -20 -127 -15 -16 -135 -61 -415 -155 -460 -153 -503 -175 -610
-304 -44 -53 -83 -123 -105 -190 -10 -29 -15 -154 -19 -470 l-5 -430 -242 -3
-243 -2 0 130 c0 126 -1 132 -25 155 -31 32 -69 32 -100 0 -24 -24 -25 -28
-25 -184 0 -88 4 -171 10 -185 5 -14 24 -35 42 -46 33 -20 48 -20 2220 -18
l2188 3 27 28 28 27 3 1274 c1 820 -1 1283 -8 1300 -5 14 -24 35 -42 46 -32
19 -51 20 -648 20 l-615 0 0 493 0 492 -24 65 c-30 82 -57 124 -115 181 -56
56 -123 93 -201 114 -85 22 -1132 21 -1214 -1z m1234 -166 c64 -34 118 -90
147 -153 22 -47 23 -64 26 -309 l4 -259 -49 8 c-141 20 -271 91 -395 215 -87
87 -124 108 -165 93 -10 -3 -72 -37 -138 -74 -241 -137 -548 -231 -785 -240
l-65 -3 0 255 c0 226 2 259 19 303 32 83 115 158 206 187 14 4 277 7 585 6
l560 -2 50 -27z m-360 -619 c122 -125 283 -209 461 -243 l69 -12 -2 -180 c-1
-146 -5 -193 -22 -258 -72 -270 -274 -480 -546 -566 -99 -31 -264 -38 -376
-16 -304 62 -540 287 -620 591 -15 59 -22 124 -26 251 l-6 171 24 6 c13 4 44
7 68 7 117 0 381 57 541 117 94 35 277 124 335 162 17 11 35 20 40 20 6 1 33
-22 60 -50z m1845 -1909 l0 -1200 -242 2 -243 3 -5 430 c-4 316 -9 441 -19
470 -22 67 -61 137 -105 190 -107 129 -150 151 -610 304 -280 94 -400 139
-415 155 -19 20 -21 34 -21 124 l0 101 73 47 c171 111 313 299 378 502 l23 72
593 0 593 0 0 -1200z m-2285 486 c119 -26 279 -19 448 20 l27 6 0 -75 c0 -84
8 -113 47 -170 l27 -38 -185 -185 -184 -184 -187 187 c-178 178 -187 188 -172
208 39 53 54 100 54 179 l0 79 28 -6 c15 -4 59 -13 97 -21z m122 -765 c12 -6
43 -11 69 -11 l48 0 228 228 229 227 176 -60 c96 -33 182 -64 189 -70 40 -29
54 -250 24 -367 -11 -41 -16 -48 -44 -54 -77 -16 -171 -87 -219 -166 -29 -47
-50 -146 -42 -203 15 -124 108 -242 223 -285 46 -18 73 -21 137 -18 136 7 239
78 297 204 18 39 23 67 23 139 0 84 -2 95 -34 153 -38 71 -94 125 -159 154
-31 14 -42 24 -38 36 19 63 28 167 22 253 l-6 98 68 -23 c134 -46 212 -101
271 -194 59 -93 61 -116 61 -559 l0 -403 -1470 0 -1470 0 0 403 c0 443 2 466
61 559 38 58 104 120 161 149 39 20 202 79 219 79 4 0 6 -46 5 -102 0 -57 2
-126 7 -155 l7 -51 -57 -27 c-76 -34 -154 -112 -190 -189 -28 -60 -28 -63 -28
-259 l0 -199 37 -34 c36 -32 42 -34 110 -34 60 0 76 4 95 22 49 46 18 115 -55
125 l-42 6 0 126 c0 150 8 183 57 241 89 104 246 108 340 9 54 -57 63 -93 63
-244 l0 -135 -25 0 c-36 0 -71 -19 -84 -47 -16 -34 -14 -47 10 -77 19 -24 27
-26 90 -26 43 0 81 6 99 15 53 28 60 55 60 250 0 148 -3 184 -19 230 -39 111
-138 208 -241 236 -25 7 -50 17 -57 23 -24 21 -36 157 -23 249 6 46 15 90 20
97 5 8 82 39 172 70 l163 56 220 -217 c121 -119 230 -222 242 -228z m1105
-280 c61 -39 92 -102 86 -176 -14 -171 -230 -238 -341 -105 -25 29 -47 86 -47
120 0 64 57 151 115 176 16 7 55 13 86 14 44 0 64 -6 101 -29z m-832 -1246 l0
-155 -220 0 -220 0 0 155 0 155 220 0 220 0 0 -155z m343 -333 c31 -20 87 -93
87 -115 0 -4 -292 -7 -650 -7 -357 0 -650 3 -650 7 0 3 11 25 25 48 25 44 59
72 104 86 14 4 256 7 536 6 l510 -2 38 -23z"/>
</g>
</svg>
